<?xml version="1.0" standalone="no"?>
<!DOCTYPE svg PUBLIC "-//W3C//DTD SVG 20010904//EN"
 "http://www.w3.org/TR/2001/REC-SVG-20010904/DTD/svg10.dtd">
<svg version="1.0" xmlns="http://www.w3.org/2000/svg"
 width="348.000000pt" height="243.000000pt" viewBox="0 0 348.000000 243.000000"
 preserveAspectRatio="xMidYMid meet">

<g transform="translate(0.000000,243.000000) scale(0.100000,-0.100000)"
fill="#000000" stroke="none">
<path d="M1840 2359 c-80 -38 -203 -96 -275 -129 l-130 -61 38 -32 37 -32 -7
-133 -6 -133 -73 -60 c-343 -280 -801 -483 -1299 -574 l-120 -22 0 -62 0 -63
825 -204 c454 -112 1189 -294 1634 -404 445 -110 811 -199 813 -197 2 2 -36
14 -84 27 -87 22 -131 39 -105 40 19 0 14 20 -6 20 -10 0 -27 7 -40 15 -15 11
-32 14 -57 9 -26 -5 -35 -3 -35 7 0 8 -7 61 -15 119 -23 168 -27 164 69 73 46
-44 117 -102 157 -128 73 -48 210 -117 259 -129 14 -4 -13 11 -59 34 -46 22
-121 65 -166 95 -80 53 -237 199 -272 252 -12 18 -30 126 -63 389 l-45 363 25
-6 c14 -3 25 -6 25 -7 1 -1 11 -53 23 -116 75 -373 245 -690 461 -854 71 -54
131 -90 131 -79 0 4 -19 19 -41 31 -57 33 -189 161 -248 241 -117 159 -215
377 -276 614 -19 76 -35 146 -35 155 0 10 -12 32 -27 50 l-28 33 -195 -52
c-107 -28 -197 -54 -200 -56 -3 -2 5 -12 16 -21 20 -16 22 -41 48 -437 15
-231 26 -426 26 -432 0 -7 8 -13 18 -13 16 0 16 20 -10 352 -15 193 -25 354
-23 357 3 2 14 -5 24 -16 16 -17 18 -30 14 -86 -4 -44 -2 -72 6 -81 17 -20 27
-116 12 -116 -15 0 -14 -47 1 -52 14 -5 39 -341 26 -346 -4 -2 -8 -10 -8 -17
0 -25 96 -45 212 -45 l108 0 0 -29 c0 -16 6 -31 13 -34 6 -2 9 -8 5 -12 -4 -4
-108 20 -230 54 -305 85 -288 79 -288 105 0 20 -12 25 -111 51 -82 22 -113 35
-117 47 -3 14 -15 18 -53 18 -27 0 -50 1 -50 3 -3 4 -44 947 -42 947 1 0 41
-25 89 -57 82 -53 228 -124 284 -137 l25 -6 -25 12 c-14 6 -61 28 -106 48 -86
40 -231 128 -256 157 -13 15 -18 81 -30 363 -7 190 -12 347 -10 350 2 3 19
-12 38 -33 19 -20 38 -37 42 -37 4 0 15 -28 24 -63 40 -151 135 -328 240 -442
91 -100 230 -189 367 -236 76 -27 74 -17 -4 16 -100 42 -242 141 -331 229
-124 125 -201 250 -255 416 l-28 85 22 17 22 17 -70 71 c-38 38 -72 70 -75 69
-3 0 -70 -32 -150 -70z m-287 -325 c-5 -85 -3 -118 6 -123 9 -6 8 -11 -4 -21
-13 -11 -15 2 -15 124 0 76 4 136 9 136 6 0 7 -48 4 -116z m374 -74 c-20 -9
-114 -46 -207 -81 l-170 -64 0 -96 c0 -78 3 -98 15 -103 9 -3 86 20 172 51
l157 56 33 -36 c28 -32 33 -44 33 -87 0 -49 -2 -52 -35 -66 -53 -22 -65 -19
-65 17 0 34 7 34 -95 -1 -44 -15 -51 -21 -55 -50 -5 -30 -10 -34 -67 -53 -63
-21 -63 -21 -63 -59 0 -30 4 -38 18 -38 10 0 93 23 184 50 91 28 170 50 176
50 5 0 12 -64 15 -142 4 -79 10 -202 13 -273 l7 -131 -39 -11 c-21 -6 -108
-26 -191 -44 l-153 -32 0 -32 c0 -32 1 -32 94 -60 l94 -28 92 18 c50 10 92 16
94 14 2 -2 6 -21 9 -42 5 -34 4 -37 -19 -37 -13 0 -24 -5 -24 -11 0 -7 -10 -9
-27 -5 -27 7 -1732 481 -1843 513 l-54 16 164 33 c285 57 504 131 755 254 159
78 374 213 493 311 l62 51 0 -34 c-1 -18 -7 -244 -14 -503 -10 -350 -11 -472
-2 -477 33 -22 36 -10 37 155 0 89 4 325 8 525 8 353 9 364 30 385 18 19 21
19 21 4 0 -10 8 -17 18 -17 17 0 329 124 340 135 3 2 10 1 16 -2 6 -4 -6 -14
-27 -23z m33 -252 l0 -31 -25 23 c-19 18 -22 26 -13 32 26 16 38 8 38 -24z
m840 -367 l0 -49 -77 -17 c-43 -9 -82 -18 -87 -19 -4 0 -14 18 -21 42 -14 44
-12 46 33 45 6 -1 12 4 12 9 0 6 13 8 30 6 16 -2 31 0 32 4 2 5 18 10 36 10
17 1 32 5 32 10 0 4 2 8 5 8 3 0 5 -22 5 -49z m-208 -35 c3 -14 0 -30 -5 -35
-8 -8 -5 -11 8 -11 31 0 6 -14 -46 -26 -40 -9 -49 -9 -49 2 0 8 6 14 13 14 8
0 7 4 -3 10 -12 8 -13 11 -1 19 11 7 11 9 0 14 -12 5 -11 7 1 16 8 5 17 8 21
5 4 -2 10 0 14 6 12 20 43 11 47 -14z m228 -101 c0 -14 -4 -25 -10 -25 -5 0
-10 11 -10 25 0 14 5 25 10 25 6 0 10 -11 10 -25z m-60 -9 c0 -25 -6 -29 -67
-41 -32 -6 -34 -5 -37 27 -1 7 19 17 44 24 62 17 60 17 60 -10z m30 -8 c0 -5
-4 -8 -10 -8 -5 0 -10 10 -10 23 0 18 2 19 10 7 5 -8 10 -18 10 -22z m-160
-12 c0 -2 3 -11 6 -20 5 -12 0 -16 -20 -16 -19 0 -26 5 -26 20 0 13 7 20 20
20 11 0 20 -2 20 -4z m-53 -38 c-3 -7 -5 -2 -5 12 0 14 2 19 5 13 2 -7 2 -19
0 -25z m272 -175 c1 -13 -5 -23 -13 -23 -19 0 -32 100 -14 111 13 8 26 -34 27
-88z m-46 25 c2 -27 1 -48 -4 -48 -5 0 -9 26 -8 58 1 64 5 60 12 -10z m-29 36
c9 -24 7 -94 -3 -94 -5 0 -20 22 -35 49 -18 35 -22 51 -13 54 24 10 45 7 51
-9z m-76 -29 c18 -38 15 -45 -18 -45 -23 0 -30 -5 -30 -19 0 -10 -7 -22 -16
-25 -21 -8 -20 -10 -27 51 -6 56 -3 59 54 62 19 1 29 -6 37 -24z m-105 -42 c4
-31 2 -53 -3 -53 -6 0 -10 26 -10 57 0 68 5 67 13 -4z m214 -95 c-3 -7 -5 -2
-5 12 0 14 2 19 5 13 2 -7 2 -19 0 -25z m55 -28 c3 -30 5 -56 3 -58 -8 -8 -33
46 -38 81 -5 32 -3 38 11 35 12 -2 19 -18 24 -58z m-89 20 c22 -36 49 -320 32
-326 -5 -2 -46 -5 -90 -7 l-80 -2 -6 95 c-4 52 -8 129 -10 170 l-4 75 60 11
c33 7 65 12 70 13 6 1 19 -12 28 -29z m-160 -220 c3 -81 2 -117 -2 -90 -5 25
-11 106 -14 180 -4 81 -3 117 2 90 5 -25 11 -106 14 -180z m220 -20 c3 -47 2
-74 -2 -60 -4 14 -10 72 -14 130 -3 62 -2 86 2 60 5 -25 11 -83 14 -130z m52
21 c3 -37 9 -74 11 -83 4 -14 -1 -18 -19 -18 -23 0 -24 4 -31 77 -3 42 -6 90
-6 107 l0 31 19 -24 c12 -16 22 -50 26 -90z"/>
<path d="M1964 1070 c0 -91 2 -128 3 -82 2 45 2 119 0 165 -1 45 -3 8 -3 -83z"/>
<path d="M2705 1330 c-3 -5 -1 -10 4 -10 6 0 11 5 11 10 0 6 -2 10 -4 10 -3 0
-8 -4 -11 -10z"/>
<path d="M2740 1309 c0 -5 5 -7 10 -4 6 3 10 8 10 11 0 2 -4 4 -10 4 -5 0 -10
-5 -10 -11z"/>
<path d="M2775 1310 c3 -5 8 -10 11 -10 2 0 4 5 4 10 0 6 -5 10 -11 10 -5 0
-7 -4 -4 -10z"/>
<path d="M2695 1300 c-19 -8 -19 -9 3 -9 12 -1 22 4 22 9 0 6 -1 10 -2 9 -2 0
-12 -4 -23 -9z"/>
<path d="M2530 1290 c0 -5 5 -10 11 -10 5 0 7 5 4 10 -3 6 -8 10 -11 10 -2 0
-4 -4 -4 -10z"/>
<path d="M2530 1260 c0 -5 5 -10 11 -10 5 0 7 5 4 10 -3 6 -8 10 -11 10 -2 0
-4 -4 -4 -10z"/>
<path d="M1390 2084 c-169 -140 -495 -321 -748 -415 -149 -54 -368 -120 -520
-155 -67 -15 -122 -31 -122 -36 0 -10 3 -9 215 44 454 114 823 278 1100 488
78 59 147 121 134 120 -2 -1 -29 -21 -59 -46z"/>
<path d="M0 705 c0 -95 3 -115 15 -115 8 0 141 -16 295 -35 574 -73 952 -148
1106 -221 30 -14 54 -29 54 -34 0 -5 -15 -10 -32 -12 -33 -3 -33 -4 -75 -128
-23 -69 -42 -131 -43 -137 0 -10 95 -13 441 -13 l441 0 -7 148 c-4 81 -11 151
-16 157 -5 5 -9 17 -9 26 0 10 -13 22 -32 29 -603 216 -1251 361 -1893 424
-88 9 -179 18 -202 21 l-43 5 0 -115z"/>
<path d="M2246 361 c-66 -8 -70 -27 -7 -35 41 -5 50 -10 53 -28 2 -19 15 -25
73 -38 80 -19 175 -49 175 -57 0 -3 -8 -12 -19 -21 -11 -10 -23 -42 -30 -76
-20 -107 -49 -96 264 -96 l275 0 0 89 c0 79 -2 90 -19 96 -10 3 -21 15 -24 26
-11 41 -202 104 -392 128 -110 14 -290 20 -349 12z"/>
<path d="M3068 243 c-32 -5 -59 -32 -34 -34 9 -1 22 -2 29 -3 7 0 22 -41 36
-94 l24 -92 73 0 c40 0 79 -3 88 -6 14 -5 16 5 16 70 0 101 20 103 47 4 l19
-73 53 -3 53 -3 -7 58 c-4 32 -8 58 -9 58 0 1 -18 15 -39 33 -43 37 -109 45
-125 15 -9 -14 -11 -14 -21 5 -23 43 -129 77 -203 65z"/>
</g>
</svg>
